<?xml version="1.0" standalone="no"?>
<!DOCTYPE svg PUBLIC "-//W3C//DTD SVG 20010904//EN"
 "http://www.w3.org/TR/2001/REC-SVG-20010904/DTD/svg10.dtd">
<svg version="1.0" xmlns="http://www.w3.org/2000/svg"
 width="1024.000000pt" height="1024.000000pt" viewBox="0 0 1024.000000 1024.000000"
 preserveAspectRatio="xMidYMid meet">
<metadata>
Created by potrace 1.11, written by Peter Selinger 2001-2013
</metadata>
<g transform="translate(0.000000,1024.000000) scale(0.100000,-0.100000)"
fill="#000000" stroke="none">
<path d="M5027 10083 c-4 -3 -48 -7 -99 -9 -118 -3 -256 -12 -316 -19 -77 -10
-125 -16 -158 -21 -17 -3 -46 -7 -65 -9 -19 -2 -45 -6 -59 -9 -14 -3 -43 -8
-65 -11 -87 -14 -101 -17 -140 -26 -22 -5 -53 -12 -70 -15 -16 -3 -48 -10 -70
-16 -22 -5 -48 -12 -57 -14 -10 -2 -27 -6 -38 -9 -11 -3 -28 -7 -39 -9 -62
-14 -419 -128 -486 -156 -16 -7 -39 -16 -50 -20 -11 -4 -33 -13 -50 -20 -16
-8 -34 -14 -40 -16 -24 -5 -272 -119 -286 -131 -8 -7 -20 -13 -26 -13 -5 0
-39 -16 -74 -35 -35 -19 -76 -41 -91 -47 -16 -7 -28 -16 -28 -20 0 -4 -6 -8
-14 -8 -16 0 -249 -139 -254 -151 -2 -5 -9 -9 -16 -9 -7 0 -23 -9 -36 -20 -13
-11 -27 -20 -31 -20 -4 0 -14 -6 -21 -13 -7 -6 -31 -24 -53 -39 -125 -85 -314
-229 -361 -275 -13 -13 -25 -23 -27 -23 -8 0 -117 -100 -287 -264 -65 -63
-190 -199 -289 -314 l-71 -83 19 -27 c29 -41 205 -312 226 -349 11 -18 23 -33
28 -33 4 0 5 -4 2 -10 -3 -5 -1 -10 4 -10 6 0 11 -6 11 -14 0 -8 4 -16 8 -18
4 -1 27 -34 52 -73 24 -38 91 -142 148 -230 217 -332 249 -381 267 -412 11
-18 22 -33 26 -33 4 0 9 -8 13 -17 3 -10 14 -30 23 -44 10 -14 28 -41 40 -60
12 -19 25 -38 30 -44 4 -5 14 -22 22 -37 8 -15 22 -36 31 -45 9 -10 16 -20 16
-23 0 -3 24 -40 52 -83 29 -43 52 -83 52 -88 0 -5 4 -9 8 -9 5 0 19 -19 32
-42 13 -24 48 -78 77 -121 29 -43 53 -79 53 -81 0 -2 25 -40 55 -85 30 -45 55
-86 55 -91 0 -6 3 -10 8 -10 4 0 23 -27 42 -60 19 -33 38 -60 43 -60 4 0 7 -6
7 -13 0 -7 8 -22 17 -33 10 -11 26 -33 35 -49 17 -30 38 -45 38 -26 0 5 5 22
12 38 7 15 13 33 13 38 5 32 130 282 179 360 71 111 90 141 95 145 3 3 18 23
33 45 28 40 39 54 126 155 56 65 175 183 238 237 25 21 51 43 57 48 7 6 30 24
52 40 22 17 42 33 45 36 10 13 227 152 272 175 26 13 49 28 53 34 4 6 11 8 16
5 5 -4 9 -1 9 4 0 6 3 10 8 9 4 -1 36 12 72 29 110 52 203 92 230 98 8 2 47
15 85 30 81 30 331 93 396 99 24 3 44 5 44 6 0 2 35 9 80 15 181 25 705 25
705 0 0 -5 4 -4 9 4 5 7 14 11 20 7 5 -4 59 -9 118 -11 178 -8 272 -13 383
-20 58 -3 146 -8 195 -10 50 -3 135 -7 190 -10 55 -3 138 -7 185 -10 47 -2
130 -6 185 -9 55 -3 150 -8 210 -11 61 -4 142 -8 180 -10 90 -5 227 -12 390
-21 72 -3 153 -7 180 -9 57 -4 242 -13 390 -20 55 -3 129 -7 165 -10 36 -2
119 -7 185 -10 66 -3 156 -8 200 -10 44 -3 125 -7 180 -10 55 -2 147 -7 205
-10 58 -3 146 -8 195 -10 50 -2 90 -5 90 -5 0 -1 16 -3 36 -4 l36 -2 -37 71
c-20 38 -47 88 -60 110 -12 22 -32 58 -43 80 -12 22 -28 46 -34 53 -7 7 -16
24 -19 38 -3 13 -9 22 -13 20 -4 -3 -13 10 -21 27 -7 18 -19 37 -24 43 -6 7
-23 31 -38 55 -47 74 -53 84 -59 89 -3 3 -20 28 -39 55 -42 63 -234 308 -267
341 -13 13 -22 24 -20 24 9 0 -125 142 -259 275 -124 123 -194 189 -284 265
-53 45 -67 56 -110 90 -60 46 -69 53 -83 65 -36 30 -166 125 -172 125 -4 0
-13 6 -20 13 -26 23 -41 34 -50 38 -12 5 -128 82 -135 89 -3 3 -18 12 -34 20
-56 29 -66 35 -66 42 0 5 -4 8 -8 8 -5 0 -57 27 -116 60 -59 33 -112 60 -116
60 -5 0 -10 3 -12 8 -2 6 -110 62 -128 67 -3 1 -31 13 -62 28 -51 24 -84 39
-198 89 -44 19 -111 47 -130 53 -3 1 -12 5 -20 8 -8 3 -51 18 -95 33 -44 14
-85 30 -91 35 -6 5 -13 6 -16 4 -3 -3 -18 -1 -34 6 -68 27 -59 24 -254 78 -58
16 -125 32 -150 37 -25 4 -47 8 -50 9 -42 12 -82 21 -135 29 -22 4 -73 13
-120 22 -16 3 -45 7 -64 9 -19 2 -49 7 -68 10 -48 7 -121 16 -168 20 -115 10
-197 16 -260 19 -38 2 -74 5 -80 6 -5 1 -12 1 -15 0 -16 -6 -60 -4 -60 3 0 4
-9 3 -19 -3 -13 -7 -22 -7 -26 0 -4 6 -13 7 -23 2 -20 -10 -33 -10 -49 1 -6 4
-14 3 -18 -3 -4 -7 -12 -7 -24 0 -10 5 -21 7 -24 3z"/>
<path d="M930 7777 c-18 -29 -48 -76 -66 -104 -19 -29 -34 -55 -34 -58 0 -3
-10 -22 -23 -43 -43 -68 -86 -152 -79 -152 4 0 2 -4 -4 -8 -8 -6 -96 -174
-100 -192 -2 -12 -47 -106 -53 -110 -3 -3 -7 -12 -9 -20 -3 -16 -53 -143 -78
-197 -8 -17 -17 -45 -20 -62 -4 -17 -11 -31 -17 -31 -6 0 -8 -3 -4 -6 3 -4 -7
-42 -23 -85 -16 -44 -29 -80 -29 -82 0 -1 -2 -9 -5 -17 -13 -41 -27 -89 -31
-106 -2 -10 -10 -40 -18 -66 -8 -27 -13 -48 -10 -48 3 0 0 -7 -7 -15 -7 -8
-10 -15 -7 -15 3 0 1 -15 -4 -32 -5 -18 -12 -46 -15 -62 -2 -16 -8 -34 -11
-40 -4 -6 -8 -22 -9 -36 -1 -14 -9 -58 -18 -98 -9 -40 -18 -89 -21 -110 -3
-20 -7 -48 -9 -62 -12 -60 -26 -160 -31 -215 -3 -33 -7 -69 -10 -80 -19 -89
-27 -658 -13 -865 9 -122 20 -215 54 -445 3 -22 7 -51 9 -65 2 -14 4 -25 5
-25 1 0 3 -9 5 -20 5 -29 26 -137 29 -155 2 -8 6 -22 9 -30 3 -8 13 -46 21
-85 30 -130 31 -135 39 -155 3 -8 9 -28 13 -45 4 -16 8 -34 10 -40 1 -5 21
-64 43 -130 23 -66 43 -127 46 -135 2 -8 4 -16 5 -17 2 -2 3 -6 5 -10 2 -8 9
-26 48 -123 12 -30 21 -58 19 -62 -1 -5 3 -8 8 -8 6 0 10 -6 10 -13 0 -12 29
-80 50 -119 6 -10 10 -24 10 -32 0 -7 7 -19 15 -26 8 -6 14 -15 12 -18 -2 -9
73 -163 89 -182 7 -8 13 -19 13 -23 0 -4 20 -43 45 -87 25 -43 46 -81 46 -84
0 -3 14 -25 30 -49 17 -25 30 -49 30 -55 0 -6 3 -12 8 -14 7 -3 94 -136 120
-184 7 -13 17 -24 23 -24 5 0 9 -6 9 -13 0 -8 9 -22 20 -32 11 -10 20 -24 20
-32 0 -7 3 -13 8 -13 4 0 18 -17 32 -38 14 -20 27 -39 30 -42 3 -3 21 -25 40
-50 19 -25 38 -47 42 -48 5 -2 8 -8 8 -13 0 -6 10 -20 23 -33 12 -13 31 -34
42 -48 65 -82 128 -151 280 -303 185 -186 211 -210 360 -334 119 -99 103 -87
240 -186 140 -103 232 -165 244 -165 5 0 11 -3 13 -8 5 -11 185 -121 190 -116
3 2 13 -5 23 -16 10 -11 22 -20 27 -20 4 0 46 -21 93 -46 46 -25 88 -45 92
-45 4 0 15 -6 23 -13 16 -13 166 -84 280 -131 36 -15 73 -31 84 -37 10 -5 26
-11 35 -13 9 -2 30 -8 46 -15 17 -6 31 -11 33 -11 1 1 15 -5 31 -13 16 -9 31
-12 35 -9 3 4 6 1 6 -6 0 -7 4 -10 9 -6 5 3 12 1 16 -5 3 -5 15 -10 26 -10 10
0 27 -4 37 -9 48 -27 518 -152 627 -167 17 -3 50 -9 75 -14 25 -5 60 -11 78
-12 37 -3 16 -41 267 458 55 110 102 201 105 204 3 3 16 28 30 55 14 28 29 53
33 56 5 3 8 9 7 13 -2 7 100 216 110 226 11 11 110 216 110 228 0 6 4 12 9 12
5 0 12 11 15 25 4 14 11 25 17 25 6 0 8 4 4 9 -3 5 2 17 11 25 8 9 13 16 10
16 -3 0 5 19 18 43 20 37 161 313 457 896 49 95 94 180 101 188 9 12 7 13 -13
9 -26 -5 -78 -14 -137 -22 -20 -3 -63 -7 -94 -8 -32 -1 -60 -5 -64 -9 -4 -3
-15 -2 -25 3 -10 6 -20 7 -22 2 -4 -6 -212 -8 -212 -2 0 1 -29 3 -65 5 -36 2
-65 4 -65 5 0 1 -16 3 -35 5 -60 5 -134 15 -160 21 -14 3 -36 8 -50 10 -14 2
-36 7 -50 11 -14 3 -32 7 -40 9 -45 8 -244 73 -330 106 -70 28 -291 134 -335
161 -136 84 -211 134 -218 144 -4 7 -13 13 -18 13 -12 0 -152 111 -229 181
-72 66 -139 129 -136 129 2 0 -21 26 -51 58 -29 31 -62 67 -73 79 -43 48 -151
196 -205 279 -32 49 -65 100 -74 114 -9 14 -32 54 -51 90 -18 36 -37 67 -42
68 -4 2 -8 10 -8 18 0 17 -111 236 -125 246 -5 4 -7 8 -3 8 4 0 -7 26 -25 58
-18 32 -102 197 -187 368 -85 170 -158 311 -162 312 -5 2 -8 12 -8 22 0 10 -3
20 -7 22 -5 2 -65 116 -134 253 -70 138 -143 280 -162 318 -20 37 -34 67 -30
67 3 0 0 6 -6 14 -12 14 -53 94 -327 636 -76 151 -142 277 -146 278 -5 2 -8 9
-8 15 0 7 -7 26 -16 42 -14 27 -222 435 -419 822 -40 78 -71 144 -68 146 2 3
-3 7 -10 10 -10 4 -26 -12 -47 -46z"/>
<path d="M9675 6902 c-2 -2 -55 -6 -117 -8 -62 -2 -149 -6 -193 -9 -44 -2
-132 -7 -195 -10 -63 -3 -146 -7 -185 -10 -38 -2 -122 -6 -185 -10 -63 -3
-160 -8 -215 -10 -55 -3 -143 -8 -195 -10 -52 -3 -133 -7 -180 -9 -168 -10
-297 -17 -385 -21 -49 -2 -135 -7 -190 -10 -55 -3 -136 -7 -180 -10 -375 -17
-487 -24 -491 -28 -3 -3 99 -141 116 -157 3 -3 11 -17 19 -32 8 -16 18 -28 23
-28 4 0 8 -7 8 -15 0 -8 5 -15 10 -15 6 0 10 -7 10 -15 0 -8 4 -15 8 -15 4 0
13 -12 19 -27 12 -28 33 -63 43 -73 10 -9 118 -234 140 -290 38 -96 79 -220
73 -220 -3 0 0 -6 7 -14 6 -8 12 -27 14 -43 1 -15 4 -33 8 -38 3 -6 9 -23 12
-40 50 -235 67 -390 67 -595 0 -149 -6 -233 -26 -370 -19 -133 -23 -157 -31
-190 -3 -14 -7 -34 -9 -45 -2 -11 -11 -44 -19 -72 -8 -29 -12 -53 -9 -53 3 0
1 -6 -4 -12 -6 -7 -16 -35 -23 -63 -7 -27 -16 -54 -19 -60 -3 -5 -6 -14 -7
-20 -13 -72 -226 -528 -264 -565 -3 -3 -23 -34 -45 -70 -49 -81 -180 -281
-195 -297 -6 -7 -7 -13 -3 -13 4 0 -1 -7 -11 -15 -11 -8 -17 -15 -13 -15 4 0
-2 -10 -13 -22 -11 -13 -23 -33 -26 -45 -4 -13 -10 -20 -15 -17 -5 3 -9 0 -9
-6 0 -6 -21 -44 -47 -83 -26 -40 -52 -80 -58 -89 -18 -30 -206 -319 -342 -526
-73 -111 -133 -207 -133 -212 0 -6 -4 -10 -8 -10 -5 0 -15 -12 -23 -27 -8 -16
-18 -32 -22 -38 -4 -5 -31 -46 -59 -90 -29 -44 -74 -113 -100 -153 -26 -40
-48 -77 -48 -82 0 -6 -4 -10 -8 -10 -5 0 -19 -19 -32 -43 -13 -23 -28 -45 -34
-49 -6 -4 -7 -8 -3 -8 4 0 3 -6 -3 -12 -40 -48 -50 -63 -50 -74 0 -7 -4 -14
-8 -16 -10 -4 -82 -115 -81 -124 0 -4 -3 -10 -9 -13 -5 -3 -27 -35 -50 -71
-23 -36 -45 -69 -49 -75 -5 -5 -37 -55 -72 -110 -35 -55 -67 -102 -71 -105 -4
-3 -10 -15 -14 -27 -4 -13 -12 -23 -17 -23 -6 0 -7 -5 -4 -10 3 -6 2 -10 -3
-10 -5 0 -17 -15 -27 -32 -16 -32 -95 -153 -112 -173 -5 -5 -12 -17 -16 -25
-15 -29 -189 -297 -206 -317 -6 -7 -11 -17 -11 -23 0 -5 -4 -10 -10 -10 -5 0
-10 -5 -10 -11 0 -6 -11 -25 -25 -43 -14 -18 -25 -38 -25 -44 0 -6 -3 -12 -8
-14 -13 -6 -153 -230 -147 -236 3 -4 43 -7 88 -7 46 -1 88 -4 95 -9 6 -4 12
-3 12 2 0 5 10 8 23 6 12 -1 22 -3 22 -4 0 -7 36 -6 41 1 3 5 13 5 25 -1 10
-6 19 -7 19 -3 0 4 48 9 108 9 102 2 246 10 322 19 19 2 55 6 80 9 71 8 142
17 175 23 17 3 38 5 48 5 9 0 17 2 17 6 0 4 11 7 25 7 14 -1 85 11 158 27 73
16 143 30 157 33 14 3 66 16 115 30 50 14 99 27 110 30 43 10 281 88 290 95 8
6 55 21 75 24 3 1 24 9 45 18 99 43 120 51 128 50 4 -1 7 2 7 6 0 5 6 9 13 9
19 0 393 177 407 193 3 3 34 20 70 39 36 19 89 49 118 67 29 19 54 34 56 34 3
0 86 53 156 100 8 5 41 27 73 48 32 21 68 48 80 58 12 11 27 21 32 22 6 2 19
10 30 20 11 9 40 33 65 52 25 19 51 40 58 47 7 7 16 13 20 13 4 0 24 16 45 35
21 19 58 50 82 68 24 19 42 37 38 41 -3 3 -1 6 6 6 7 0 33 19 59 43 60 54 332
325 332 330 0 2 19 24 41 48 53 57 192 226 255 309 26 36 51 67 54 70 3 3 10
12 15 21 30 48 70 105 81 116 7 7 16 22 19 33 3 11 10 20 14 20 5 0 14 14 21
30 7 17 16 30 20 30 4 0 11 11 14 25 4 14 11 25 16 25 6 0 10 7 10 15 0 8 5
15 11 15 5 0 8 4 4 9 -3 5 -1 12 4 16 13 7 98 158 173 303 32 62 61 119 65
125 4 7 8 17 9 22 1 6 18 45 39 89 89 193 225 571 260 726 2 8 4 16 5 18 3 2
3 2 15 57 4 22 10 45 11 50 16 54 39 165 63 299 29 162 36 204 46 306 4 30 8
69 10 85 20 149 27 681 12 855 -16 176 -18 195 -22 215 -2 11 -7 47 -10 80 -4
33 -10 78 -15 100 -5 22 -11 60 -15 85 -3 25 -13 79 -22 120 -8 41 -17 86 -19
99 -3 13 -9 32 -14 41 -5 10 -7 19 -5 22 3 3 -2 27 -10 54 -8 27 -14 49 -14
49 1 0 -4 20 -11 45 -7 25 -14 56 -17 69 -2 14 -7 29 -11 35 -3 6 -8 22 -10
36 -2 13 -8 30 -14 37 -6 7 -8 13 -5 13 5 0 -65 207 -95 279 -11 29 -19 34
-47 35 -18 1 -34 -1 -36 -2z"/>
<path d="M4949 6786 c-2 -2 -26 -7 -54 -10 -66 -8 -150 -22 -150 -26 0 -1 -9
-3 -20 -5 -29 -5 -128 -35 -170 -51 -11 -4 -23 -8 -27 -8 -3 -1 -10 -4 -14 -8
-4 -5 -15 -8 -25 -8 -10 0 -25 -7 -33 -16 -9 -8 -16 -13 -16 -9 0 9 -187 -91
-227 -121 -17 -13 -34 -24 -38 -24 -3 0 -11 -4 -18 -10 -7 -5 -39 -31 -72 -56
-64 -50 -217 -202 -275 -273 -50 -62 -130 -184 -130 -198 0 -7 -4 -13 -8 -13
-22 0 -145 -299 -173 -420 -18 -75 -20 -84 -25 -115 -2 -16 -7 -41 -9 -55 -11
-65 -23 -300 -15 -300 3 0 5 -26 6 -58 1 -75 15 -185 30 -234 3 -10 7 -28 10
-40 14 -76 82 -268 121 -342 10 -17 16 -34 15 -38 -1 -5 2 -8 8 -8 5 0 10 -5
10 -10 0 -15 93 -162 147 -233 61 -78 200 -219 278 -280 33 -26 66 -52 73 -58
33 -27 177 -111 253 -147 139 -67 388 -142 469 -142 16 0 31 -4 34 -8 7 -11
360 -13 416 -2 25 5 64 11 85 14 32 4 129 26 180 41 6 1 25 6 43 10 18 4 35
12 38 16 3 5 12 9 21 9 8 0 29 6 46 14 53 24 112 49 118 50 3 1 54 29 112 64
330 194 588 499 720 852 31 84 61 185 73 245 2 11 6 31 9 45 9 43 15 93 21
175 3 44 7 85 9 92 2 6 -1 14 -8 17 -9 3 -9 5 0 5 7 1 11 7 8 14 -2 6 -7 57
-10 112 -6 99 -11 146 -18 175 -2 8 -9 42 -16 75 -11 55 -34 139 -48 175 -3 8
-7 20 -9 25 -16 61 -126 286 -149 305 -8 7 -15 17 -15 23 0 8 -62 98 -113 165
-44 55 -247 247 -313 293 -69 50 -258 163 -273 165 -3 0 -24 8 -46 19 -22 10
-44 19 -50 21 -5 2 -37 13 -70 24 -33 12 -69 23 -79 25 -10 3 -33 9 -50 14
-17 6 -44 12 -61 14 -16 3 -41 8 -55 11 -14 3 -38 9 -55 12 -36 7 -409 16
-416 10z"/>
</g>
</svg>
